HIERARCHY
ROOT Hips
{
	OFFSET -3.958830 18.904000 13.208200
	CHANNELS 6 Xposition Yposition Zposition Zrotation Yrotation Xrotation 
	JOINT LHipJoint
	{
		OFFSET 0.000000 0.000000 0.000000
		CHANNELS 3 Zrotation Yrotation Xrotation
		JOINT LeftUpLeg
		{
			OFFSET 1.800000 -1.400000 0.085000
			CHANNELS 3 Zrotation Yrotation Xrotation
			JOINT LeftLeg
			{
				OFFSET 2.215000 -6.000000 0.000000
				CHANNELS 3 Zrotation Yrotation Xrotation
				JOINT LeftFoot
				{
					OFFSET 2.500000 -6.900000 0.000000
					CHANNELS 3 Zrotation Yrotation Xrotation
					JOINT LeftToeBase
					{
						OFFSET 0.200000 -0.500000 1.950000
						CHANNELS 3 Zrotation Yrotation Xrotation
						End Site
						{
							OFFSET 0.000000 0.000000 0.000000
						}
					}
				}
			}
		}
	}
	JOINT RHipJoint
	{
		OFFSET 0.000000 0.000000 0.000000
		CHANNELS 3 Zrotation Yrotation Xrotation
		JOINT RightUpLeg
		{
			OFFSET -1.800000 -1.400000 0.085000
			CHANNELS 3 Zrotation Yrotation Xrotation
			JOINT RightLeg
			{
				OFFSET -2.215000 -6.000000 0.000000
				CHANNELS 3 Zrotation Yrotation Xrotation
				JOINT RightFoot
				{
					OFFSET -2.500000 -6.900000 0.000000
					CHANNELS 3 Zrotation Yrotation Xrotation
					JOINT RightToeBase
					{
						OFFSET -0.200000 -0.500000 1.950000
						CHANNELS 3 Zrotation Yrotation Xrotation
						End Site
						{
							OFFSET 0.000000 0.000000 0.000000
						}
					}
				}
			}
		}
	}
	JOINT LowerBack
	{
		OFFSET 0.000000 0.000000 0.000000
		CHANNELS 3 Zrotation Yrotation Xrotation
		JOINT Spine
		{
			OFFSET -0.087000 1.940000 -0.288900
			CHANNELS 3 Zrotation Yrotation Xrotation
			JOINT Spine1
			{
				OFFSET 0.000000 1.950000 0.060000
				CHANNELS 3 Zrotation Yrotation Xrotation
				JOINT Neck
				{
					OFFSET 0.000000 0.000000 0.000000
					CHANNELS 3 Zrotation Yrotation Xrotation
					JOINT Neck1
					{
						OFFSET 0.000000 1.600000 0.340000
						CHANNELS 3 Zrotation Yrotation Xrotation
						JOINT Head
						{
							OFFSET 0.000000 1.667000 -0.240000
							CHANNELS 3 Zrotation Yrotation Xrotation
							End Site
							{
								OFFSET 0.000000 0.000000 0.000000
							}
						}
					}
				}
				JOINT LeftShoulder
				{
					OFFSET 0.000000 0.000000 0.000000
					CHANNELS 3 Zrotation Yrotation Xrotation
					JOINT LeftArm
					{
						OFFSET 2.700000 1.550000 -0.730000
						CHANNELS 3 Zrotation Yrotation Xrotation
						JOINT LeftForeArm
						{
							OFFSET 5.450000 0.000000 0.000000
							CHANNELS 3 Zrotation Yrotation Xrotation
							JOINT LeftHand
							{
								OFFSET 3.450000 0.000000 0.000000
								CHANNELS 3 Zrotation Yrotation Xrotation
								JOINT LeftHandIndex1
								{
									OFFSET 0.750000 0.000000 0.000000
									CHANNELS 3 Zrotation Yrotation Xrotation
									End Site
									{
										OFFSET 0.000000 0.000000 0.000000
									}
								}
							}
						}
					}
				}
				JOINT RightShoulder
				{
					OFFSET 0.000000 0.000000 0.000000
					CHANNELS 3 Zrotation Yrotation Xrotation
					JOINT RightArm
					{
						OFFSET -2.700000 1.550000 -0.730000
						CHANNELS 3 Zrotation Yrotation Xrotation
						JOINT RightForeArm
						{
							OFFSET -5.450000 0.000000 0.000000
							CHANNELS 3 Zrotation Yrotation Xrotation
							JOINT RightHand
							{
								OFFSET -3.450000 0.000000 0.000000
								CHANNELS 3 Zrotation Yrotation Xrotation
								JOINT RightHandIndex1
								{
									OFFSET -0.750000 0.000000 0.000000
									CHANNELS 3 Zrotation Yrotation Xrotation
									End Site
									{
										OFFSET 0.000000 0.000000 0.000000
									}
								}
							}
						}
					}
				}
			}
		}
	}
}
MOTION
Frames: 13
Frame Time: 0.016667
-1.382040 16.317640 2.304410 -7.761061 -11.888601 21.858629 -14.654069 11.073058 4.244320 -9.248091 -7.753956 -34.552491 -6.403080 4.302893 15.667700 -0.436265 2.769283 3.763914 -0.497690 0.038220 -1.276800 18.968928 -10.789187 3.871265 20.444728 1.444541 -20.047356 7.294270 -3.007722 5.784165 0.178573 -2.493505 3.210010 0.187550 1.432160 0.056540 -5.146526 2.002375 -8.510215 -12.156502 0.703579 7.043362 -16.044112 -12.825602 -26.646090 -0.923586 -13.961731 -14.519150 -22.322210 9.633633 4.848149 13.440310 -9.437090 -9.919410 29.142414 27.397063 2.003820 -68.136522 10.256228 -7.293486 21.154321 -4.772329 0.599312 -4.710285 2.647550 -0.364250 0.368830 -0.421730 0.351350 -24.019074 -11.108274 0.767658 -3.153953 6.267102 -0.579398 -3.064953 2.120559 -1.274715 2.908523 -0.557164 -0.275820 0.886300 0.678260 0.929770 
-1.465460 16.372710 2.326910 -8.087248 -16.806821 21.454968 -14.587111 11.147773 4.040718 -8.501010 -7.059634 -32.521756 -5.759293 3.761483 13.785378 -0.589994 2.457697 3.771231 -0.234360 0.376310 -1.122110 19.016078 -10.959177 3.902226 20.391443 0.508262 -17.367071 7.256134 -2.943141 4.230643 -0.011466 -2.591899 3.079044 0.388450 1.255440 0.073110 -5.233418 2.284602 -8.468816 -13.392285 1.308519 5.441642 -17.349845 -12.701686 -26.251842 -1.495109 -13.877033 -13.754181 -21.635649 7.128097 5.662594 14.931170 -10.711880 -16.560390 31.525115 28.601432 0.533199 -69.221268 4.721236 -3.766427 20.642064 0.175771 1.155769 -4.631898 2.589646 -0.253060 0.227760 -0.250270 0.364980 -25.428136 -11.857078 -0.991673 -3.038634 8.514521 -0.834662 -3.846254 1.892784 -1.389718 2.896760 -0.526779 -0.194010 0.927050 0.599340 0.922210 
-1.532680 16.420710 2.299880 -8.635047 -23.937872 18.383908 -14.575725 11.505985 3.666848 -7.200722 -5.604616 -28.046692 -5.531315 3.507389 12.307616 -0.624994 2.210378 3.709557 0.130400 0.864070 -0.867990 19.002328 -11.009413 3.907647 18.858142 -0.832588 -12.128051 7.753169 -3.242161 3.552794 -0.373865 -2.863396 2.874033 0.586470 0.944520 0.118820 -5.188979 1.733249 -8.233626 -11.290989 -0.401092 3.207305 -24.273875 -11.238595 -22.146412 -0.694972 -13.702085 -12.095812 -21.204446 7.439757 5.238205 17.789920 -9.126320 -26.769980 22.318536 23.260248 -1.144413 -55.010180 3.100534 -3.692827 15.479113 -0.994063 0.161716 -4.209743 2.679639 -0.066410 -0.013210 0.077590 0.383720 -19.254117 -6.942973 2.053564 -7.220815 5.552671 0.071756 -3.925565 0.810516 -1.341385 2.928230 -0.520115 -0.008640 0.918320 0.427160 0.920660 
-1.586400 16.460280 2.335120 -8.691579 -23.938241 19.019834 -14.685100 11.477008 3.489440 -7.363898 -5.117844 -27.071633 -3.652942 2.692551 10.205636 -1.024704 1.662751 3.622498 0.573360 1.517890 -0.277880 18.960068 -10.867035 3.877719 20.785478 -0.575089 -13.072874 6.525697 -3.188164 4.691843 -0.502790 -2.644722 2.689918 0.741520 0.818540 0.171350 -5.010152 1.569627 -7.972399 -11.374309 -0.652380 2.379842 -25.322780 -11.564321 -21.355937 -2.052454 -13.211871 -8.073817 -18.778384 2.217428 3.689934 16.698440 -9.525650 -42.863820 24.206932 29.333186 -5.244562 -56.478362 -1.153412 -2.530592 14.135633 -2.984615 -0.696713 -3.937633 2.313443 0.244100 -0.200230 0.420850 0.144190 -20.053970 -11.184790 -1.641163 -8.580587 8.468141 -0.046477 -3.741431 0.953129 -1.910214 3.092822 -0.226550 0.138950 1.033050 0.287100 1.054270 
-1.656630 16.498730 2.364120 -8.974504 -25.672479 19.993868 -14.721453 11.521538 3.327363 -7.005315 -4.439795 -25.819514 -2.327496 2.068931 7.643853 -1.201967 1.468888 3.637626 0.782820 1.820530 -0.188320 18.952468 -10.758667 3.935652 22.620315 -0.204859 -14.013648 5.690968 -2.871318 5.172251 -0.561550 -2.533711 2.609352 0.959500 0.790710 0.175900 -4.955975 1.410360 -7.889976 -11.385220 -0.696534 0.721342 -25.350705 -11.943657 -20.705635 -3.316999 -12.390415 -8.069473 -16.600425 0.309569 2.818897 17.239600 -10.306680 -46.198940 32.102636 34.222999 -5.596597 -63.787476 -1.011292 -2.437149 13.245313 -6.343442 -1.338342 -3.766886 2.313930 0.328210 -0.262120 0.530190 0.194910 -25.445629 -13.574996 -3.378997 -5.986103 9.978013 -0.678903 -2.370466 1.658928 -2.345834 3.008984 -0.111189 0.138970 1.118090 0.209160 1.110790 
-1.726830 16.535650 2.341250 -7.254266 -30.598899 16.790484 -14.749516 11.739860 3.277207 -8.016442 -3.664582 -21.910083 -2.118602 2.053865 6.323719 -1.105704 1.485843 3.664883 0.805160 1.799740 -0.084660 18.899180 -10.782427 3.914299 20.881850 -0.978133 -11.058563 6.112671 -3.103058 4.994142 -0.649850 -2.749482 2.531775 0.879370 0.751220 0.140900 -4.853295 1.011845 -7.820737 -13.543202 -1.510342 -0.025277 -27.194635 -11.362303 -18.703828 -2.450690 -12.131443 -8.937381 -16.814087 2.450459 3.259582 19.208480 -8.515400 -45.798350 28.971740 30.079941 -4.564824 -56.103151 -2.309189 -2.564570 11.864328 -8.497353 -1.472401 -3.572632 2.497578 0.368060 -0.336490 0.548300 0.179970 -23.433869 -11.220052 -2.529031 -7.854714 8.065408 -0.689205 -3.789373 2.572449 -2.217611 3.133581 -0.255796 0.153950 1.079650 0.146820 1.102840 
-1.785820 16.563480 2.325520 -7.085759 -39.094203 14.898985 -14.685728 11.879448 3.278156 -8.215425 -2.895937 -18.653380 -2.059158 2.021020 4.575694 -1.077011 1.602407 3.664823 0.716190 1.688070 -0.122620 18.913563 -10.927158 3.957526 19.245522 -1.678231 -7.465658 5.283628 -3.333059 5.512145 -0.699877 -3.094616 2.455883 0.803770 0.795190 0.121780 -5.011525 0.997185 -7.875131 -12.962900 -0.664314 -2.025571 -28.881708 -9.870194 -18.477623 -2.075893 -12.070294 -10.986148 -17.511624 5.537581 3.725593 20.218410 -6.490830 -43.984910 29.343049 26.831088 -2.741484 -52.147325 -2.357909 -2.443506 11.603279 -9.469465 -1.461219 -3.565106 2.545244 0.387740 -0.309100 0.507590 0.151910 -23.743749 -9.195302 -2.251001 -8.874459 6.938340 -0.567282 -3.799502 2.617832 -2.166628 3.135995 -0.167900 0.106910 1.075630 0.183750 1.082380 
-1.824190 16.618410 2.274510 -7.677869 -49.691070 13.011377 -14.616521 12.384248 3.428638 -7.680564 -2.344154 -15.794056 -1.967321 2.130868 3.390545 -0.658171 2.071255 3.755730 0.297110 1.076630 -0.704080 18.841096 -10.954089 4.129312 16.999347 -2.190993 -3.005496 3.956253 -3.292213 6.176944 -0.736062 -3.470640 2.574952 0.700610 0.800630 0.144060 -5.294364 -0.033284 -8.101839 -8.992258 -1.053601 -4.902543 -31.681807 -8.376776 -18.582995 0.976731 -12.142544 -17.041508 -19.649746 13.425262 5.183077 21.088260 -3.110340 -28.968100 27.588015 19.249157 1.920212 -43.635367 3.295087 -3.561647 11.448581 -10.223056 -1.097523 -3.896963 2.926203 0.094720 -0.128350 0.278940 0.384000 -25.596896 -3.634295 1.135646 -7.121077 5.403519 0.144635 -3.633512 1.104267 -1.402094 2.862487 -0.272450 0.020260 0.949290 0.359190 0.862730 
-1.867810 16.641040 2.228890 -6.304948 -59.295244 12.492747 -14.657457 12.375339 3.621029 -9.370998 -2.478519 -15.301467 0.045227 1.574365 2.141939 -0.633221 2.033276 3.844255 0.291370 1.204720 -0.898700 18.743885 -11.171009 4.113263 15.342708 -1.857128 -2.273321 0.301534 -2.469088 6.394365 -0.658202 -3.610526 2.590184 0.877340 1.027970 0.115270 -5.401098 0.409714 -8.256751 -11.178679 1.126882 -8.018675 -27.278180 -7.375154 -18.274376 -0.220243 -10.414624 -20.833100 -16.327791 17.735159 4.658530 21.883410 -1.334650 -21.458590 39.171828 20.474110 6.270726 -52.689814 6.253717 -5.829007 10.468197 -18.045299 -1.386175 -3.930237 3.392179 -0.174950 0.069100 0.118070 0.516200 -33.033229 -7.942273 -1.551586 -3.238358 12.467836 1.265517 -2.040586 -0.876490 -1.807800 2.902650 -0.127395 -0.001010 1.049760 0.373620 0.962580 
-1.926780 16.651700 2.123330 -4.785370 -70.315501 11.719389 -14.677450 11.940876 3.580861 -9.800664 -2.682475 -14.753829 1.596864 1.163880 1.907546 -0.715138 2.099510 3.934477 0.276910 1.254260 -0.924530 18.722636 -11.720935 4.036898 13.216537 -1.591911 -1.438435 -1.917323 -2.092551 6.124429 -0.540304 -3.939990 2.522236 1.009760 1.340950 0.064990 -5.980419 2.159445 -8.343440 -13.862510 5.767163 -10.597703 -25.215456 -0.779003 -13.084712 -6.118193 -9.105696 -25.320308 -11.430366 19.590537 2.866991 21.858470 -2.095330 -17.289010 56.258025 21.820808 17.355397 -64.733124 2.876938 -13.912039 1.125988 -36.159474 -0.988511 -3.182405 5.101965 -0.421640 0.296680 -0.108830 0.555360 -38.589278 -20.061833 -5.413388 1.088426 15.233857 -3.380833 -6.127594 3.968480 -2.500546 2.723424 -0.820162 -0.102590 1.205690 0.379870 1.061320 
-1.921000 16.637030 2.086050 -6.045682 -75.764018 14.447919 -14.207885 10.786832 3.345780 -10.319686 -2.907383 -15.710828 2.923772 0.759672 2.165397 -0.873505 2.121097 4.099498 0.151410 1.149920 -1.081740 19.270266 -12.788587 3.971682 12.702427 -1.278227 -3.243959 -2.698504 -2.053893 6.734161 -0.339739 -4.332405 2.494369 1.117110 1.732540 0.043920 -7.270282 6.237191 -8.891565 -17.747616 12.390770 -10.362322 -26.402555 6.918838 -8.000239 -14.253761 -7.366992 -25.588849 -3.124316 19.054890 1.840735 18.958480 -3.939590 -11.191100 70.542651 22.200557 31.144186 -63.396794 -4.857489 -29.684549 -46.071368 -55.139464 5.557624 8.951624 9.829702 -0.731020 0.646330 -0.450700 0.618860 -42.346874 -34.749510 -7.972792 3.535910 11.570802 -12.801028 -4.615931 16.731364 -2.796674 1.718312 -2.324024 -0.266570 1.339440 0.459040 1.115900 
-1.954810 16.612610 2.137730 -7.978617 -67.042478 19.735978 -12.839963 8.743709 3.105123 -11.030657 -3.381439 -19.000956 4.517158 0.250508 2.071044 -1.321670 2.131994 4.199212 -0.080280 0.803860 -1.084490 20.823501 -14.233036 4.174452 16.107704 -1.132935 -7.465070 -0.968482 -2.491563 5.371326 -0.042111 -4.598028 2.428065 1.157800 2.032580 0.085430 -8.697930 13.500199 -9.057522 -22.810535 23.044063 -6.008744 -32.704263 9.288160 -4.328135 -14.786575 -0.760846 -15.844262 3.420946 17.581282 -2.183846 11.230260 -0.621860 -3.934500 76.583129 49.473066 45.561162 -15.680445 -33.134062 -11.727427 172.685780 -85.594599 99.100711 10.699890 -34.311865 -0.892290 1.092230 -0.801660 0.487450 -57.046857 -47.248295 5.629360 1.428968 3.352038 -19.197329 21.214926 32.567093 1.041758 -1.860790 -5.494264 -0.568950 1.373160 0.654690 0.921360 
-1.983230 16.607770 2.196760 -7.199579 -60.730599 22.028972 -13.705062 10.404065 3.442930 -11.000180 -4.132398 -23.519861 3.615855 0.589709 1.717596 -1.242609 2.149437 4.203313 -0.024800 0.624660 -0.738500 19.963660 -11.982613 3.980810 20.017066 -1.586111 -9.565060 1.754305 -2.953821 3.180530 -0.042651 -3.857290 2.592499 0.910390 1.677440 0.111530 -7.725007 9.294669 -8.952857 -28.525044 19.954124 -5.744981 -28.117088 5.987304 -4.777780 -6.926801 -3.783744 -23.004281 1.207302 14.704610 -3.991853 9.185600 1.445380 -3.866300 58.786200 56.014479 7.792921 8.782264 -6.591112 -19.570140 161.415930 -87.934692 -71.118323 4.409206 -30.529915 -0.616410 0.866810 -0.637190 0.381340 -53.807748 -55.655959 -1.044315 -3.635829 10.861608 13.856878 12.206496 62.871484 3.196890 1.114735 -5.135989 -0.529210 1.078210 0.511660 0.715220 
